<?xml version="1.0" standalone="no"?><!DOCTYPE svg PUBLIC "-//W3C//DTD SVG 1.1//EN" "http://www.w3.org/Graphics/SVG/1.1/DTD/svg11.dtd"><svg t="1561458617493" class="icon" viewBox="0 0 1024 1024" version="1.1" xmlns="http://www.w3.org/2000/svg" p-id="4756" xmlns:xlink="http://www.w3.org/1999/xlink" width="200" height="200"><defs><style type="text/css"></style></defs><path d="M446.783 792.116V362.328c0-18.276-14.783-33.067-33.057-33.067-18.284 0-33.067 14.791-33.067 33.067v429.788c0 18.276 14.783 33.059 33.067 33.059 18.274-0.001 33.057-14.784 33.057-33.059z m-66.124-661.219h264.499c18.274 0 33.057-14.783 33.057-33.057 0-18.276-14.783-33.067-33.057-33.067H380.659c-18.276 0-33.059 14.791-33.059 33.067 0 18.274 14.783 33.057 33.059 33.057z m429.796 165.307c-18.284 0-33.057 14.783-33.057 33.057v495.913c0 36.516-29.608 66.124-66.124 66.124h-396.73c-36.517 0-66.124-29.608-66.124-66.124V329.261c0-18.274-14.783-33.057-33.059-33.057-18.241 0-33.057 14.783-33.057 33.057v562.038c0 36.508 29.608 66.116 66.116 66.116h528.979c36.508 0 66.116-29.608 66.116-66.116V329.261c-0.001-18.266-14.793-33.057-33.06-33.057z m99.183-132.249H116.169c-18.241 0-33.057 14.79-33.057 33.065s14.816 33.067 33.057 33.067h793.469c18.268 0 33.059-14.791 33.059-33.067s-14.792-33.065-33.059-33.065zM645.149 792.116V362.328c0-18.276-14.783-33.067-33.067-33.067-18.276 0-33.059 14.791-33.059 33.067v429.788c0 18.276 14.783 33.059 33.059 33.059 18.284-0.001 33.067-14.784 33.067-33.059z" fill="" p-id="4757"></path></svg>