<?xml version="1.0" standalone="no"?><!DOCTYPE svg PUBLIC "-//W3C//DTD SVG 1.1//EN" "http://www.w3.org/Graphics/SVG/1.1/DTD/svg11.dtd"><svg t="1561950753310" class="icon" viewBox="0 0 1024 1024" version="1.1" xmlns="http://www.w3.org/2000/svg" p-id="5431" width="200" height="200"><path d="M437.83898 833.742693V341.056208a37.411941 37.411941 0 0 0-36.900324-37.859605 37.411941 37.411941 0 0 0-36.900325 37.859605v492.686485c0 20.976268 16.499625 37.923557 36.900325 37.923557a37.347989 37.347989 0 0 0 36.900324-37.923557zM364.038331 75.783163h295.202598a37.347989 37.347989 0 0 0 36.900325-37.859606A37.411941 37.411941 0 0 0 659.240929 0H364.038331a37.411941 37.411941 0 0 0-36.900325 37.923557c0 20.912316 16.499625 37.859605 36.900325 37.859606z m479.64027 189.489882a37.347989 37.347989 0 0 0-36.900325 37.923558v568.469647c0 41.824632-32.999251 75.783163-73.736698 75.783163H290.301633c-40.801399 0-73.80065-33.894579-73.800649-75.783163V303.132651a37.347989 37.347989 0 0 0-36.900325-37.859606 37.411941 37.411941 0 0 0-36.900325 37.923558v644.25281c0 41.824632 33.063203 75.783163 73.80065 75.783163h590.277292c40.801399 0 73.80065-33.894579 73.800649-75.783163V303.196603a37.411941 37.411941 0 0 0-36.900324-37.923558z m110.700974-151.566325H68.899685A37.411941 37.411941 0 0 0 31.99936 151.566325c0 20.976268 16.563577 37.923557 36.900325 37.923558h885.47989A37.411941 37.411941 0 0 0 991.2799 151.566325a37.411941 37.411941 0 0 0-36.900325-37.859605z m-295.138646 720.099925V340.992256a37.411941 37.411941 0 0 0-36.900325-37.859605 37.411941 37.411941 0 0 0-36.900325 37.859605v492.686485c0 20.976268 16.499625 37.923557 36.900325 37.923557 20.400699 0 36.900325-16.94729 36.900325-37.923557z" fill="#4A90E2" p-id="5432"></path></svg>