<?xml version="1.0" standalone="no"?><!DOCTYPE svg PUBLIC "-//W3C//DTD SVG 1.1//EN" "http://www.w3.org/Graphics/SVG/1.1/DTD/svg11.dtd"><svg t="1561950564064" class="icon" viewBox="0 0 1024 1024" version="1.1" xmlns="http://www.w3.org/2000/svg" p-id="2312" width="200" height="200"><path d="M412.8 601.344a38.592 38.592 0 0 1 0-55.552L893.12 62.336a44.416 44.416 0 0 0 10.112-2.752 46.336 46.336 0 0 1 15.232-3.584c4.096 0 2.432-0.64 13.248 3.712a30.08 30.08 0 0 0 12.032 2.56l8 8.064c0 1.344 0.768 4.032 2.752 10.112a46.336 46.336 0 0 1 3.584 15.232c0 3.84-0.832 7.04-3.584 15.168l-5.056 15.744L469.12 610.048c-0.896 0-0.32-0.256-7.36 2.56a45.44 45.44 0 0 1-17.92 3.712c-13.248 0-20.16-4.096-31.04-14.976z m505.728-279.488c24.96 0 40.832 18.432 33.28 39.68v506.304c0 48.768-41.6 90.304-90.24 90.304H146.304c-49.792 0-90.304-42.624-90.304-96.64V146.368c0-48.768 41.6-90.304 90.24-90.304h481.088c23.424 0 39.68 16.256 39.68 39.68 0 23.36-16.256 39.616-39.68 39.616H177.92c-27.2 0-42.624 15.36-42.624 42.624v658.304c0 23.36 17.664 42.624 42.624 42.624h658.304c24.96 0 42.624-19.264 42.624-42.624V361.472c0-23.36 16.256-39.68 39.68-39.68z" fill="#4796FF" p-id="2313"></path></svg>