<?xml version="1.0" standalone="no"?><!DOCTYPE svg PUBLIC "-//W3C//DTD SVG 1.1//EN" "http://www.w3.org/Graphics/SVG/1.1/DTD/svg11.dtd"><svg t="1561950710320" class="icon" viewBox="0 0 1024 1024" version="1.1" xmlns="http://www.w3.org/2000/svg" p-id="3221" width="200" height="200"><path d="M512 0C229.3 0 0 229.3 0 512s229.3 512 512 512 512-229.3 512-512S794.7 0 512 0z m443.4 512c0 109.9-40.3 210.6-106.7 288.1L223.9 175.3C301.4 108.9 402.1 68.6 512 68.6c244.5 0 443.4 198.9 443.4 443.4z m-886.8 0c0-109.9 40.3-210.6 106.7-288.1l624.8 624.8C722.6 915.1 621.9 955.4 512 955.4 267.5 955.4 68.6 756.5 68.6 512z" p-id="3222" fill="#007fff"></path></svg>