<?xml version="1.0" standalone="no"?><!DOCTYPE svg PUBLIC "-//W3C//DTD SVG 1.1//EN" "http://www.w3.org/Graphics/SVG/1.1/DTD/svg11.dtd"><svg t="1559636841193" class="icon" style="" viewBox="0 0 1024 1024" version="1.1" xmlns="http://www.w3.org/2000/svg" p-id="5249" xmlns:xlink="http://www.w3.org/1999/xlink" width="200" height="200"><defs><style type="text/css"></style></defs><path d="M992.455585 336.201453L821.414843 507.203317c-37.756403 37.794284-99.031929 37.794284-136.825217 0L513.587763 336.201453c-37.790296-37.79229-37.790296-99.063829 0-136.805279L684.589626 28.34347c37.793287-37.79229 99.068814-37.79229 136.825217 0l171.040742 171.05071c37.786309 37.743444 37.786309 99.014983 0 136.807273z m-29.695723-125.604462L810.232966 58.04617c-31.62566-31.548901-82.839791-31.548901-114.426573 0L543.273516 210.596991c-31.584789 31.549898-31.584789 82.800913 0 114.389689L695.806393 477.496629c31.587779 31.604726 82.80191 31.604726 114.426573 0l152.526896-152.510946c31.588776-31.588776 31.588776-82.778982 0-114.388692z m-620.917627 806.990153H99.968986c-53.450107 0-96.766047-43.312949-96.766047-96.739132V678.964795c0-53.412226 43.313946-96.743119 96.766047-96.743119h241.873249c53.410232 0 96.726172 43.33488 96.726172 96.743119v241.88222c0 53.427179-43.313946 96.740128-96.726172 96.740129z m0-532.112575H99.968986c-53.450107 0-96.766047-43.31594-96.766047-96.743119V146.873155c0-53.444126 43.313946-96.76505 96.766047-96.76505h241.873249c53.410232 0 96.726172 43.320924 96.726172 96.76505v241.858295c0 53.428176-43.313946 96.743119-96.726172 96.743119z m290.223375 96.747107h241.87624c53.445123 0 96.762059 43.330893 96.762059 96.741125v241.88222c0 53.426182-43.316937 96.743119-96.762059 96.743119H632.06561c-53.416214 0-96.729163-43.316937-96.729162-96.743119v-241.880226c0-53.412226 43.312949-96.743119 96.729162-96.743119z" p-id="5250"></path></svg>