<?xml version="1.0" standalone="no"?><!DOCTYPE svg PUBLIC "-//W3C//DTD SVG 1.1//EN" "http://www.w3.org/Graphics/SVG/1.1/DTD/svg11.dtd"><svg t="1561458981424" class="icon" viewBox="0 0 1024 1024" version="1.1" xmlns="http://www.w3.org/2000/svg" p-id="6916" xmlns:xlink="http://www.w3.org/1999/xlink" width="200" height="200"><defs><style type="text/css"></style></defs><path d="M512 0.799375C229.820453 0.799375 0.399688 230.220141 0.399688 511.600312c0 281.380172 229.420765 510.800937 511.600312 510.800937 282.179547 0 511.600312-229.420765 511.600312-510.800937C1023.600312 230.220141 794.179547 0.799375 512 0.799375L512 0.799375zM120.306011 511.600312C120.306011 295.768931 296.168618 120.705699 512 120.705699c83.135051 0 159.075722 25.580016 222.226386 69.545667l-544.374707 543.575332C146.685402 670.676034 120.306011 594.735363 120.306011 511.600312L120.306011 511.600312zM512 902.494926c-79.937549 0-155.078845-23.981265-217.430133-65.54879l542.775956-541.976581c41.567525 62.351288 65.54879 136.693208 65.54879 216.630757C903.693989 727.431694 727.831382 902.494926 512 902.494926L512 902.494926zM512 902.494926" fill="#d81e06" p-id="6917"></path><path d="M512 0c-282.179547 0-511.600312 228.62139-511.600312 511.600312 0 282.179547 228.62139 511.600312 511.600312 511.600312 282.179547 0 511.600312-228.62139 511.600312-511.600312C1023.600312 229.420765 794.179547 0 512 0zM217.030445 216.630757c79.138173-79.138173 183.856362-122.30445 294.969555-122.30445 96.724434 0 187.85324 32.774395 262.19516 92.727557L186.654176 773.795472C126.701015 699.453552 94.725995 608.324746 94.725995 511.600312 94.725995 400.487119 137.892272 295.768931 217.030445 216.630757zM806.969555 807.369243c-79.138173 79.138173-183.856362 122.30445-294.969555 122.30445-95.125683 0-185.455113-31.97502-258.997658-89.530055L839.74395 253.40203c58.354411 73.542545 89.530055 163.0726 89.530055 258.198283C929.274005 623.512881 886.107728 728.231069 806.969555 807.369243z" fill="#d81e06" p-id="6918"></path></svg>