<?xml version="1.0" standalone="no"?><!DOCTYPE svg PUBLIC "-//W3C//DTD SVG 1.1//EN" "http://www.w3.org/Graphics/SVG/1.1/DTD/svg11.dtd"><svg t="1559636665647" class="icon" style="" viewBox="0 0 1025 1024" version="1.1" xmlns="http://www.w3.org/2000/svg" p-id="3363" xmlns:xlink="http://www.w3.org/1999/xlink" width="200.1953125" height="200"><defs><style type="text/css"></style></defs><path d="M1008.531704 362.256534 1008.531704 47.557132 587.515904 47.557132l0 125.317147L415.635255 172.874279l0 300.323996L286.754956 473.198276 286.754956 227.868801 16.807804 227.868801l0 556.020586 269.947152 0L286.754956 537.199938l128.880299 0 0 313.699632 171.881672 0L587.516928 976.216717l421.015799 0L1008.532727 661.517315 587.515904 661.517315l0 125.379569L479.636918 786.896884l0-249.696945 0-64.002686L479.636918 236.875942l107.878986 0 0 125.379569L1008.531704 362.255511zM222.75227 719.886701 80.809467 719.886701 80.809467 291.871487l141.942803 0L222.75227 719.886701zM651.51859 725.520001l293.01145 0 0 186.694029L651.51859 912.214031 651.51859 725.520001zM651.51859 111.558795l293.01145 0 0 186.694029L651.51859 298.252825 651.51859 111.558795z" p-id="3364"></path></svg>