<?xml version="1.0" standalone="no"?><!DOCTYPE svg PUBLIC "-//W3C//DTD SVG 1.1//EN" "http://www.w3.org/Graphics/SVG/1.1/DTD/svg11.dtd"><svg t="1562815480587" class="icon" viewBox="0 0 1024 1024" version="1.1" xmlns="http://www.w3.org/2000/svg" p-id="1986" xmlns:xlink="http://www.w3.org/1999/xlink" width="200" height="200"><defs><style type="text/css"></style></defs><path d="M511.761233 0.852168C229.506872 0.852168 0.670345 229.688695 0.670345 511.978021c0 282.288328 228.836527 511.090888 511.090888 511.090888 282.288328 0 511.15982-228.80256 511.159821-511.090888C1022.921054 229.689694 794.049561 0.852168 511.760234 0.852168z m0 932.836027c-232.859598 0-421.64224-188.850576-421.64224-421.710174 0-232.928531 188.782642-421.677206 421.64224-421.677205 232.859598 0 421.711173 188.748675 421.711173 421.677205 0 232.859598-188.851575 421.710174-421.711173 421.710174z" fill="#545F76" p-id="1987"></path><path d="M494.819778 738.360944a55.564738 55.564738 0 0 0-40.736219 16.328055c-10.909346 10.942314-16.36302 24.544031-16.36302 40.770185s5.48864 29.793904 16.36302 40.736219c10.908347 10.87438 24.509065 16.328055 40.736219 16.328055 16.226154 0 29.826872-5.454673 40.735219-16.328055 10.909346-10.942314 16.36302-24.510064 16.363021-40.736219 0-16.294088-5.454673-29.827871-16.363021-40.770185a55.564738 55.564738 0 0 0-40.735219-16.328055zM634.650224 248.813019a140.444847 140.444847 0 0 0-53.314934-29.827872 208.963934 208.963934 0 0 0-67.188387-8.794411c-24.645932 0.545467-47.724394 4.328773-69.268355 11.351914a195.770818 195.770818 0 0 0-56.246072 28.122536 132.94617 132.94617 0 0 0-37.805081 42.406588 108.776773 108.776773 0 0 0-13.873452 54.167102c0 14.010318 3.646439 24.645932 10.942315 31.906841 7.260909 7.294876 19.294158 11.215048 36.099746 11.760515 13.430884 0 26.589034-3.647438 39.441483-10.942314 12.884418-7.226942 19.327126-18.169257 19.327126-32.725042 0-14.555785 6.988176-25.225366 20.964527-31.941807a118.900886 118.900886 0 0 1 47.86126-10.942314c17.93049-0.545467 33.337444 3.238837 46.189893 11.351914 12.85145 8.113077 19.294158 23.691863 19.294158 46.599493 0 9.544679-0.784234 18.100324-2.522537 25.634966a93.914287 93.914287 0 0 1-8.351844 22.667863 137.342876 137.342876 0 0 1-16.396987 23.93063c-6.988176 8.385811-15.509854 17.623789-25.6 27.713936a261.289834 261.289834 0 0 0-35.282544 41.588386 300.047984 300.047984 0 0 0-40.73522 86.448578c-3.647438 13.124183-5.454673 24.237331-5.454673 33.168609 0 17.418989 5.011106 29.793904 15.101253 37.395481 10.05618 7.56761 22.396129 11.316948 36.951914 11.316948 14.521819 0 26.862767-4.022072 36.917947-12.135149 10.05618-8.113077 15.13522-20.317159 15.13522-36.543313 0-10.601647 0.7163-20.453026 2.113935-29.350338a84.539442 84.539442 0 0 1 9.647579-27.305335c5.045073-9.237979 12.305982-19.566892 21.850661-31.054673a512.011988 512.011988 0 0 1 38.65625-40.735219c24.032531-22.976562 40.156784-44.34969 48.201928-64.257249a178.590595 178.590595 0 0 0 13.089217-63.405081c0.545467-25.736866-3.203871-48.372761-11.384882-68.006587a136.150041 136.150041 0 0 0-34.361444-49.565596z" fill="#545F76" p-id="1988"></path></svg>