<?xml version="1.0" standalone="no"?><!DOCTYPE svg PUBLIC "-//W3C//DTD SVG 1.1//EN" "http://www.w3.org/Graphics/SVG/1.1/DTD/svg11.dtd"><svg t="1564999146200" class="icon" viewBox="0 0 1024 1024" version="1.1" xmlns="http://www.w3.org/2000/svg" p-id="5538" xmlns:xlink="http://www.w3.org/1999/xlink" width="200" height="200"><defs><style type="text/css"></style></defs><path d="M938.776272 721.124902c18.204364 10.865729 24.17767 34.417625 13.311941 52.678877A514.842156 514.842156 0 0 1 511.997724 1024c-282.338301 0-511.997724-229.716312-511.997724-511.997724a38.342941 38.342941 0 0 1 65.47882-27.13588l134.31407 134.257181a38.399829 38.399829 0 0 1-54.271759 54.328648l-55.750863-55.750864C137.044724 806.68541 308.450185 947.200341 511.997724 947.200341a437.587389 437.587389 0 0 0 374.099671-212.763498 38.399829 38.399829 0 0 1 52.678877-13.311941zM511.997724 0.004551c282.338301 0 511.997724 229.659424 511.997725 511.997725a38.342941 38.342941 0 0 1-65.47882 27.135879L811.800836 392.53614a38.399829 38.399829 0 0 1 54.271759-54.328648l68.152586 68.152586C886.893836 217.319141 715.545264 76.80421 511.997724 76.80421a432.5243 432.5243 0 0 0-391.393816 244.621135 38.342941 38.342941 0 1 1-68.949026-33.734961A508.811961 508.811961 0 0 1 511.997724 0.004551z" p-id="5539"></path></svg>