<?xml version="1.0" standalone="no"?><!DOCTYPE svg PUBLIC "-//W3C//DTD SVG 1.1//EN" "http://www.w3.org/Graphics/SVG/1.1/DTD/svg11.dtd"><svg t="1566199326523" class="icon" viewBox="0 0 1025 1024" version="1.1" xmlns="http://www.w3.org/2000/svg" p-id="2616" xmlns:xlink="http://www.w3.org/1999/xlink" width="200.1953125" height="200"><defs><style type="text/css"></style></defs><path d="M999.127 754.391L646.123 118.17C614.656 61.553 565.698 29.07 511.815 29.07c-53.964 0-102.932 32.523-134.307 89.201L24.873 754.34c-30.976 55.87-33.086 114.75-5.806 161.536 27.36 46.93 79.667 73.85 143.523 73.85h698.89c63.888 0 116.194-26.92 143.463-73.778 27.33-46.726 25.21-105.616-5.816-161.557z m-74.578 114.678c-10.21 17.53-33.188 27.586-63.068 27.586H162.59c-29.87 0-52.87-10.076-63.12-27.648-10.342-17.735-7.854-43.08 6.8-69.53L458.915 163.39c14.51-26.204 33.802-41.236 52.9-41.236 19.087 0 38.39 15.032 52.95 41.216l352.973 636.17c14.684 26.47 17.173 51.794 6.81 69.53z" fill="#d81e06" p-id="2617"></path><path d="M512.02 634.071a46.53 46.53 0 0 0 46.541-46.449V370.258a46.52 46.52 0 0 0-46.54-46.449 46.53 46.53 0 0 0-46.542 46.449v217.354a46.53 46.53 0 0 0 46.541 46.459z m0 46.53a62.095 62.095 0 0 0-62.054 62.055c0 34.202 27.78 62.054 62.054 62.054 34.202 0 62.055-27.78 62.055-62.054 0-34.202-27.782-62.054-62.055-62.054z" fill="#d81e06" p-id="2618"></path></svg>