<?xml version="1.0" standalone="no"?><!DOCTYPE svg PUBLIC "-//W3C//DTD SVG 1.1//EN" "http://www.w3.org/Graphics/SVG/1.1/DTD/svg11.dtd"><svg t="1561459066030" class="icon" viewBox="0 0 1024 1024" version="1.1" xmlns="http://www.w3.org/2000/svg" p-id="9018" xmlns:xlink="http://www.w3.org/1999/xlink" width="200" height="200"><defs><style type="text/css"></style></defs><path d="M730.69037 329.121185L432.004741 627.806815 293.347556 489.121185a31.269926 31.269926 0 0 0-44.193186 0 31.260444 31.260444 0 0 0 0 44.183704l156.956445 156.965926c1.052444 1.507556 1.697185 3.233185 3.034074 4.579555 6.305185 6.305185 14.601481 9.216 22.85037 8.988445 8.25837 0.18963 16.583111-2.683259 22.878815-8.988445 1.355852-1.34637 1.991111-3.072 3.043556-4.579555l316.965926-316.965926a31.260444 31.260444 0 0 0 0-44.183704 31.260444 31.260444 0 0 0-44.193186 0zM512 0C229.214815 0 0 229.214815 0 512s229.214815 512 512 512c282.756741 0 512-229.214815 512-512S794.785185 0 512 0z m0 960C264.571259 960 64 759.428741 64 512S264.571259 64 512 64 960 264.571259 960 512 759.428741 960 512 960z" fill="#1afa29" p-id="9019"></path></svg>