<svg width="780" height="350" xmlns="http://www.w3.org/2000/svg">
 <!-- Created with Method Draw - http://github.com/duopixel/Method-Draw/ -->
 <g>
  <title>background</title>
  <rect fill="#efefef" id="canvas_background" height="0" width="0" y="-1" x="-1"/>
  <g display="none" overflow="visible" y="0" x="0" height="100%" width="100%" id="canvasGrid">
   <rect fill="url(#gridpattern)" stroke-width="0" y="0" x="0" height="100%" width="100%"/>
  </g>
 </g>
 <g>
  <title>Layer 1</title>
  <path stroke="#818D99" opacity="1" id="svg_1" d="m596.32947,145.19609l-77.54236,-30.83487l0,34.31013l-139.16086,0c-24.36613,1.25332 -66.43504,-17.7761 -113.20972,-43.02673c-47.10156,-23.95201 -100.93171,-53.33954 -173.00744,-54.12578l-48.49189,0l0,54.69519l48.49189,0c35.29912,-0.70644 78.82519,18.40285 125.16524,43.06151c17.27298,8.61416 34.695,18.11757 53.15575,26.69793c-18.46075,8.59162 -35.86206,18.10641 -53.15575,26.72076c-46.34002,24.59002 -89.86611,43.74483 -125.11963,43.04963l-48.53747,0l0,54.77497l48.51255,0c71.9226,-0.69467 125.77357,-30.16184 173.02819,-54.07977c46.77888,-25.2511 88.82722,-44.29163 113.21393,-43.06105l139.11526,0l0,34.30981l77.54236,-30.80018l77.5877,-30.82286l-77.5877,-30.86867l-0.00004,-0.00002z" stroke-width="5" fill="#818D99"/>
 </g>
</svg>